<svg width="23" height="22" viewBox="0 0 23 22" fill="none" xmlns="http://www.w3.org/2000/svg">
<g opacity="0.8">
<path d="M13.0089 19.1491C16.8442 18.8952 19.8985 15.7969 20.1497 11.9075C20.1983 11.1466 20.1983 10.3583 20.1497 9.59748C19.8985 5.70898 16.8442 2.61248 13.0089 2.35673C11.6842 2.26944 10.3552 2.26944 9.03052 2.35673C5.19519 2.61157 2.14086 5.70898 1.88969 9.5984C1.84113 10.3676 1.84113 11.1392 1.88969 11.9084C1.98136 13.3246 2.60744 14.6364 3.34536 15.7437C3.77344 16.5183 3.49111 17.4854 3.04469 18.3315C2.72386 18.9411 2.56252 19.2454 2.69177 19.4654C2.82011 19.6854 3.10886 19.6927 3.68544 19.7065C4.82669 19.734 5.59577 19.4113 6.20627 18.9612C6.55186 18.7055 6.72511 18.5781 6.84427 18.5634C6.96344 18.5487 7.19902 18.6459 7.66836 18.8384C8.09002 19.0126 8.58044 19.1198 9.02961 19.1501C10.3359 19.2362 11.7008 19.2362 13.0098 19.1501M11.0151 11H11.0243M14.6781 11H14.6864M7.35302 11H7.36127" stroke="white" stroke-width="1.5" stroke-linecap="round" stroke-linejoin="round"/>
</g>
</svg>
