<svg width="28" height="28" viewBox="0 0 28 28" fill="none" xmlns="http://www.w3.org/2000/svg">
<path d="M18.5967 8.89002L12.9034 11.2234C12.5127 11.3777 12.1579 11.6105 11.8609 11.9075C11.5639 12.2045 11.331 12.5594 11.1767 12.95L8.84341 18.6434C8.80509 18.7409 8.80689 18.8495 8.84842 18.9457C8.88995 19.0419 8.96784 19.1177 9.06508 19.1567C9.15918 19.1915 9.26265 19.1915 9.35675 19.1567L15.0501 16.8234C15.4407 16.6691 15.7956 16.4362 16.0926 16.1392C16.3896 15.8422 16.6224 15.4874 16.7767 15.0967L19.1101 9.40336C19.1484 9.30586 19.1466 9.19716 19.1051 9.10099C19.0635 9.00482 18.9857 8.92898 18.8884 8.89002C18.7943 8.85518 18.6908 8.85518 18.5967 8.89002ZM14.0001 15.1667C13.7693 15.1667 13.5438 15.0983 13.3519 14.9701C13.1601 14.8419 13.0105 14.6597 12.9222 14.4465C12.8339 14.2333 12.8108 13.9987 12.8558 13.7724C12.9008 13.5461 13.012 13.3382 13.1751 13.1751C13.3383 13.0119 13.5462 12.9008 13.7725 12.8558C13.9988 12.8108 14.2334 12.8339 14.4465 12.9222C14.6597 13.0105 14.8419 13.16 14.9701 13.3519C15.0983 13.5437 15.1667 13.7693 15.1667 14C15.1667 14.3094 15.0438 14.6062 14.825 14.825C14.6062 15.0438 14.3095 15.1667 14.0001 15.1667Z" fill="white"/>
<path d="M14 24.5C11.9233 24.5 9.89323 23.8842 8.16652 22.7304C6.4398 21.5767 5.09399 19.9368 4.29927 18.0182C3.50455 16.0996 3.29661 13.9884 3.70176 11.9516C4.1069 9.91476 5.10693 8.04383 6.57538 6.57538C8.04383 5.10693 9.91476 4.1069 11.9516 3.70176C13.9884 3.29661 16.0996 3.50455 18.0182 4.29927C19.9368 5.09399 21.5767 6.4398 22.7304 8.16652C23.8842 9.89323 24.5 11.9233 24.5 14C24.5 16.7848 23.3938 19.4555 21.4246 21.4246C19.4555 23.3938 16.7848 24.5 14 24.5ZM14 5.25C12.2694 5.25 10.5777 5.76318 9.13877 6.72465C7.69984 7.68611 6.57833 9.05267 5.91606 10.6515C5.25379 12.2504 5.08051 14.0097 5.41813 15.707C5.75575 17.4044 6.58911 18.9635 7.81282 20.1872C9.03653 21.4109 10.5956 22.2443 12.293 22.5819C13.9903 22.9195 15.7496 22.7462 17.3485 22.0839C18.9473 21.4217 20.3139 20.3002 21.2754 18.8612C22.2368 17.4223 22.75 15.7306 22.75 14C22.75 11.6794 21.8281 9.45376 20.1872 7.81282C18.5462 6.17188 16.3206 5.25 14 5.25Z" fill="white"/>
</svg>
