<svg width="21" height="23" viewBox="0 0 21 23" fill="none" xmlns="http://www.w3.org/2000/svg">
<path d="M7.30005 22L7.30215 17.7979C7.30215 16.8204 7.30215 16.3321 7.4628 15.9468C7.56834 15.6918 7.72309 15.4602 7.91821 15.265C8.11333 15.0699 8.34499 14.9152 8.59995 14.8096C8.9853 14.65 9.47355 14.65 10.45 14.65C11.4265 14.65 11.9158 14.65 12.3022 14.8096C12.5572 14.9152 12.7889 15.0699 12.984 15.265C13.1791 15.4602 13.3339 15.6918 13.4394 15.9468C13.6 16.3332 13.6 16.8214 13.6 17.8V22" stroke="black" stroke-width="1.5" stroke-linecap="round" stroke-linejoin="round"/>
<path d="M5.2924 3.9001L4.2424 4.72015C2.6506 5.96335 1.85365 6.58495 1.42735 7.46065C1 8.3374 1 9.3496 1 11.374V13.5706C1 17.5438 1 19.5304 2.2306 20.7652C3.4612 22 5.44045 22 9.4 22H11.5C15.4596 22 17.4399 22 18.6694 20.7652C19.899 19.5304 19.9 17.5438 19.9 13.5696V11.3751C19.9 9.3496 19.9 8.3374 19.4727 7.46065C19.0453 6.58495 18.2494 5.96335 16.6576 4.72015L15.6076 3.90115C13.1296 1.966 11.8906 1 10.45 1C9.0094 1 7.7704 1.966 5.2924 3.9001Z" stroke="black" stroke-width="1.5" stroke-linecap="round" stroke-linejoin="round"/>
</svg>
