<svg width="22" height="22" viewBox="0 0 22 22" fill="none" xmlns="http://www.w3.org/2000/svg">
<path fill-rule="evenodd" clip-rule="evenodd" d="M11 12.5749C12.114 12.5749 13.1822 12.1324 13.9699 11.3448C14.7576 10.5571 15.2 9.48884 15.2 8.37493C15.2 7.26102 14.7576 6.19273 13.9699 5.40508C13.1822 4.61743 12.114 4.17493 11 4.17493C9.88614 4.17493 8.81785 4.61743 8.0302 5.40508C7.24255 6.19273 6.80005 7.26102 6.80005 8.37493C6.80005 9.48884 7.24255 10.5571 8.0302 11.3448C8.81785 12.1324 9.88614 12.5749 11 12.5749ZM11 11.5249C11.4137 11.5249 11.8233 11.4435 12.2055 11.2851C12.5877 11.1268 12.9349 10.8948 13.2274 10.6023C13.5199 10.3098 13.752 9.96256 13.9103 9.58038C14.0686 9.1982 14.15 8.78859 14.15 8.37493C14.15 7.96126 14.0686 7.55165 13.9103 7.16947C13.752 6.7873 13.5199 6.44005 13.2274 6.14754C12.9349 5.85504 12.5877 5.62301 12.2055 5.46471C11.8233 5.3064 11.4137 5.22493 11 5.22493C10.1646 5.22493 9.3634 5.5568 8.77266 6.14754C8.18192 6.73828 7.85005 7.5395 7.85005 8.37493C7.85005 9.21036 8.18192 10.0116 8.77266 10.6023C9.3634 11.1931 10.1646 11.5249 11 11.5249Z" fill="white"/>
<path fill-rule="evenodd" clip-rule="evenodd" d="M21.5 11C21.5 16.7991 16.7991 21.5 11 21.5C5.20085 21.5 0.5 16.7991 0.5 11C0.5 5.20085 5.20085 0.5 11 0.5C16.7991 0.5 21.5 5.20085 21.5 11ZM16.0557 18.9852C14.5444 19.9451 12.7904 20.4533 11 20.45C9.16688 20.4533 7.37281 19.9205 5.83872 18.917C5.71272 18.7595 5.58497 18.5967 5.45547 18.4287C5.30527 18.232 5.22425 17.9912 5.225 17.7436C5.225 17.1782 5.63135 16.7041 6.17472 16.6248C9.76835 16.0998 12.2427 16.145 15.841 16.6432C16.1015 16.6813 16.3394 16.8122 16.511 17.0118C16.6826 17.2114 16.7764 17.4662 16.775 17.7294C16.775 17.9814 16.6884 18.2261 16.5319 18.4172C16.3706 18.6135 16.2118 18.8029 16.0557 18.9852ZM17.8171 17.5446C17.7331 16.5618 16.9871 15.7418 15.9849 15.6032C12.3015 15.0934 9.72687 15.0446 6.023 15.5859C5.015 15.7329 4.27212 16.5603 4.18392 17.5457C2.49097 15.7875 1.54666 13.4408 1.55 11C1.55 5.78097 5.78097 1.55 11 1.55C16.219 1.55 20.45 5.78097 20.45 11C20.4533 13.4403 19.5094 15.7866 17.8171 17.5446Z" fill="white"/>
</svg>
